<svg width="214" height="214" viewBox="0 0 214 214" fill="none" xmlns="http://www.w3.org/2000/svg">
<g clip-path="url(#clip0_104_48)">
<path d="M26.75 0C11.9957 0 0 11.9957 0 26.75V147.125C0 161.879 11.9957 173.875 26.75 173.875H66.875V207.312C66.875 209.862 68.2961 212.161 70.5531 213.289C72.8102 214.418 75.527 214.167 77.575 212.662L129.278 173.875H187.25C202.004 173.875 214 161.879 214 147.125V26.75C214 11.9957 202.004 0 187.25 0H26.75Z" fill="#DE002C"/>
<path d="M150.155 63.5575C145.613 63.5575 141.426 64.0367 137.593 64.995C133.801 65.9533 129.968 67.3283 126.093 69.12L120.593 55.1825C124.468 52.7658 128.947 50.9533 134.03 49.745C139.155 48.495 144.801 47.87 150.968 47.87C156.593 47.87 161.405 48.5992 165.405 50.0575C169.447 51.4742 172.759 53.5992 175.343 56.4325C177.926 59.2658 179.822 62.7658 181.03 66.9325C182.28 71.0992 182.905 75.8908 182.905 81.3075V125.12H164.593L161.405 115.62C160.238 117.62 159.009 119.328 157.718 120.745C156.426 122.12 155.009 123.266 153.468 124.182C151.926 125.099 150.218 125.766 148.343 126.182C146.509 126.599 144.447 126.807 142.155 126.807C138.03 126.807 134.343 126.266 131.093 125.182C127.843 124.099 125.072 122.495 122.78 120.37C120.53 118.245 118.801 115.62 117.593 112.495C116.384 109.37 115.78 105.766 115.78 101.682C115.78 97.5575 116.572 94.0158 118.155 91.0575C119.78 88.0575 122.134 85.5992 125.218 83.6825C128.301 81.7242 132.093 80.2867 136.593 79.37C141.093 78.4117 146.259 77.9325 152.093 77.9325C153.301 77.9325 154.509 77.9742 155.718 78.0575C156.968 78.1408 158.218 78.2867 159.468 78.495C159.468 76.8283 159.384 75.12 159.218 73.37C159.093 71.62 158.718 70.0158 158.093 68.5575C157.509 67.0992 156.593 65.9117 155.343 64.995C154.093 64.0367 152.363 63.5575 150.155 63.5575ZM148.343 110.932C152.759 110.932 156.468 108.912 159.468 104.87V90.495C158.093 90.4117 156.905 90.3283 155.905 90.245C154.905 90.1617 154.322 90.12 154.155 90.12C151.155 90.12 148.697 90.3492 146.78 90.8075C144.863 91.2242 143.363 91.8492 142.28 92.6825C141.197 93.4742 140.447 94.4742 140.03 95.6825C139.613 96.8492 139.405 98.1825 139.405 99.6825C139.405 103.141 140.155 105.891 141.655 107.932C143.197 109.932 145.426 110.932 148.343 110.932Z" fill="white"/>
</g>
<defs>
<clipPath id="clip0_104_48">
<rect width="214" height="214" fill="white"/>
</clipPath>
</defs>
</svg>
