<svg width="42" height="40" viewBox="0 0 42 40" fill="none" xmlns="http://www.w3.org/2000/svg">
<path d="M9.95 10C8.87344 10 8 11.0337 8 12.3077C8 13.0337 8.28844 13.7163 8.78 14.1538L17.62 22C18.0831 22.4087 18.7169 22.4087 19.18 22L21.5119 19.9327C22.4828 17.0577 24.7497 14.9663 27.4553 14.6538L28.02 14.1538C28.5116 13.7163 28.8 13.0337 28.8 12.3077C28.8 11.0337 27.9266 10 26.85 10H9.95ZM19.96 23.2308C19.0337 24.0529 17.7662 24.0529 16.84 23.2308L8 15.3846V25.3846C8 27.0817 9.16594 28.4615 10.6 28.4615H22.6331C21.6134 27 21 25.1202 21 23.0769C21 22.8077 21.0122 22.5433 21.0325 22.2788L19.96 23.2308ZM34 23.0769C34 21.2408 33.3837 19.4799 32.2866 18.1816C31.1895 16.8832 29.7015 16.1538 28.15 16.1538C26.5985 16.1538 25.1105 16.8832 24.0134 18.1816C22.9163 19.4799 22.3 21.2408 22.3 23.0769C22.3 24.913 22.9163 26.6739 24.0134 27.9723C25.1105 29.2706 26.5985 30 28.15 30C29.7015 30 31.1895 29.2706 32.2866 27.9723C33.3837 26.6739 34 24.913 34 23.0769ZM30.8841 20.9952C31.1359 21.2933 31.1359 21.7837 30.8841 22.0817L27.9591 25.5433C27.7072 25.8413 27.2928 25.8413 27.0409 25.5433L25.4159 23.6202C25.1641 23.3221 25.1641 22.8317 25.4159 22.5337C25.6678 22.2356 26.0822 22.2356 26.3341 22.5337L27.5 23.9135L29.9659 20.9952C30.2178 20.6971 30.6322 20.6971 30.8841 20.9952Z" fill="#DE002C"/>
<rect x="0.5" y="0.5" width="41" height="39" rx="19.5" stroke="#DE002C"/>
</svg>
