<svg width="489" height="378" viewBox="0 0 489 378" fill="none" xmlns="http://www.w3.org/2000/svg">
<path d="M180.875 108C156.675 108 137 119.996 137 134.75V255.125C137 269.879 156.675 281.875 180.875 281.875H246.688V315.312C246.688 317.862 249.018 320.161 252.72 321.289C256.422 322.418 260.878 322.167 264.238 320.662L349.04 281.875H444.125C468.325 281.875 488 269.879 488 255.125V134.75C488 119.996 468.325 108 444.125 108H180.875Z" fill="#BE0025"/>
<g clip-path="url(#clip0_115_41)">
<path d="M181.875 81.8433C157.675 81.8433 138 93.839 138 108.593V228.968C138 243.723 157.675 255.718 181.875 255.718H247.688V289.156C247.688 291.705 250.018 294.004 253.72 295.133C257.422 296.261 261.878 296.01 265.238 294.506L350.04 255.718H445.125C469.325 255.718 489 243.723 489 228.968V108.593C489 93.839 469.325 81.8433 445.125 81.8433H181.875Z" fill="url(#paint0_angular_115_41)"/>
<path d="M331.028 243L323.072 231.876V243H316.016V217.62H323.072V228.564L330.956 217.62H339.092L329.768 229.932L339.56 243H331.028ZM361.253 217.62V223.236H354.485V243H347.429V223.236H340.733V217.62H361.253ZM383.916 226.08C383.916 227.616 383.556 229.02 382.836 230.292C382.14 231.54 381.072 232.548 379.632 233.316C378.216 234.06 376.476 234.432 374.412 234.432H370.92V243H363.864V217.62H374.412C376.452 217.62 378.18 217.98 379.596 218.7C381.036 219.42 382.116 220.416 382.836 221.688C383.556 222.96 383.916 224.424 383.916 226.08ZM373.728 228.816C375.72 228.816 376.716 227.904 376.716 226.08C376.716 224.232 375.72 223.308 373.728 223.308H370.92V228.816H373.728ZM402.806 238.86H393.806L392.438 243H385.022L394.274 217.62H402.41L411.626 243H404.174L402.806 238.86ZM401.042 233.46L398.306 225.252L395.606 233.46H401.042Z" fill="#FFD80B"/>
<circle cx="386.5" cy="189.5" r="7.5" fill="#FFD80B"/>
</g>
<path d="M29.988 181.15H56.049V199H6.664V115.105H29.988V181.15ZM61.3101 165.561C61.3101 158.659 62.5398 152.63 64.9991 147.473C67.5378 142.316 70.9491 138.35 75.2331 135.573C79.5964 132.796 84.4358 131.408 89.7511 131.408C94.3524 131.408 98.3191 132.32 101.651 134.145C104.983 135.97 107.561 138.429 109.386 141.523V132.241H132.71V199H109.386V189.718C107.561 192.812 104.943 195.271 101.532 197.096C98.2001 198.921 94.2731 199.833 89.7511 199.833C84.4358 199.833 79.5964 198.445 75.2331 195.668C70.9491 192.891 67.5378 188.925 64.9991 183.768C62.5398 178.532 61.3101 172.463 61.3101 165.561ZM109.386 165.561C109.386 161.277 108.196 157.905 105.816 155.446C103.515 152.987 100.659 151.757 97.2481 151.757C93.7574 151.757 90.8618 152.987 88.5611 155.446C86.2604 157.826 85.1101 161.198 85.1101 165.561C85.1101 169.845 86.2604 173.256 88.5611 175.795C90.8618 178.254 93.7574 179.484 97.2481 179.484C100.659 179.484 103.515 178.254 105.816 175.795C108.196 173.336 109.386 169.924 109.386 165.561Z" fill="white"/>
<path d="M169.325 141.523C171.15 138.429 173.728 135.97 177.06 134.145C180.392 132.32 184.319 131.408 188.841 131.408C194.156 131.408 198.956 132.796 203.24 135.573C207.603 138.35 211.015 142.316 213.474 147.473C216.013 152.63 217.282 158.659 217.282 165.561C217.282 172.463 216.013 178.532 213.474 183.768C211.015 188.925 207.603 192.891 203.24 195.668C198.956 198.445 194.156 199.833 188.841 199.833C184.319 199.833 180.392 198.921 177.06 197.096C173.807 195.271 171.229 192.812 169.325 189.718V230.892H146.001V132.241H169.325V141.523ZM193.601 165.561C193.601 161.198 192.411 157.826 190.031 155.446C187.73 152.987 184.874 151.757 181.463 151.757C178.052 151.757 175.156 152.987 172.776 155.446C170.475 157.905 169.325 161.277 169.325 165.561C169.325 169.924 170.475 173.336 172.776 175.795C175.156 178.254 178.052 179.484 181.463 179.484C184.874 179.484 187.73 178.254 190.031 175.795C192.411 173.256 193.601 169.845 193.601 165.561ZM223.076 165.561C223.076 158.659 224.305 152.63 226.765 147.473C229.303 142.316 232.715 138.35 236.999 135.573C241.362 132.796 246.201 131.408 251.517 131.408C256.118 131.408 260.085 132.32 263.417 134.145C266.749 135.97 269.327 138.429 271.152 141.523V132.241H294.476V199H271.152V189.718C269.327 192.812 266.709 195.271 263.298 197.096C259.966 198.921 256.039 199.833 251.517 199.833C246.201 199.833 241.362 198.445 236.999 195.668C232.715 192.891 229.303 188.925 226.765 183.768C224.305 178.532 223.076 172.463 223.076 165.561ZM271.152 165.561C271.152 161.277 269.962 157.905 267.582 155.446C265.281 152.987 262.425 151.757 259.014 151.757C255.523 151.757 252.627 152.987 250.327 155.446C248.026 157.826 246.876 161.198 246.876 165.561C246.876 169.845 248.026 173.256 250.327 175.795C252.627 178.254 255.523 179.484 259.014 179.484C262.425 179.484 265.281 178.254 267.582 175.795C269.962 173.336 271.152 169.924 271.152 165.561ZM349.536 199L331.091 171.63V199H307.767V110.94H331.091V158.421L349.536 132.241H377.501L351.202 165.799L377.977 199H349.536Z" fill="#FF0032"/>
<defs>
<radialGradient id="paint0_angular_115_41" cx="0" cy="0" r="1" gradientUnits="userSpaceOnUse" gradientTransform="translate(313.5 188.839) rotate(117.424) scale(144.387 236.832)">
<stop stop-color="white"/>
<stop offset="0.628125" stop-color="white" stop-opacity="0.27"/>
<stop offset="1" stop-color="white" stop-opacity="0.23"/>
</radialGradient>
<clipPath id="clip0_115_41">
<rect width="351" height="214" fill="white" transform="translate(138 81.8433)"/>
</clipPath>
</defs>
</svg>
