<svg width="40" height="40" viewBox="0 0 40 40" fill="none" xmlns="http://www.w3.org/2000/svg">
<path d="M10.6163 20.1642C9.7335 20.6681 9.81553 22.0118 10.7569 22.4024L16.2374 24.6876V28.7227C16.2374 29.4298 16.8077 30.0001 17.5148 30.0001C17.8937 30.0001 18.253 29.8321 18.4952 29.5392L20.9171 26.6368L25.7569 28.6524C26.4952 28.961 27.3507 28.4767 27.4718 27.6876L29.9718 11.4376C30.046 10.9649 29.839 10.4884 29.4444 10.2188C29.0499 9.94931 28.5343 9.92587 28.1163 10.1642L10.6163 20.1642ZM12.6515 21.1602L25.9913 13.5392L17.4132 23.1251L17.4601 23.1642L12.6515 21.1602ZM25.7413 26.6173L19.2335 23.9024L27.5968 14.5548L25.7413 26.6173Z" fill="#DE002C"/>
<rect x="0.5" y="0.499939" width="38.9867" height="39.0002" rx="19.4933" stroke="#DE002C"/>
</svg>
