<svg width="40" height="40" viewBox="0 0 40 40" fill="none" xmlns="http://www.w3.org/2000/svg">
<path d="M28.4219 10.7446C27.5664 9.88916 26.1836 9.88916 25.3281 10.7446L24.1523 11.9165L27.9766 15.7407L29.1523 14.5649C30.0078 13.7095 30.0078 12.3267 29.1523 11.4712L28.4219 10.7446ZM16.7344 19.3384C16.4961 19.5767 16.3125 19.8696 16.207 20.1938L15.0508 23.6626C14.9375 23.9985 15.0273 24.3696 15.2773 24.6235C15.5273 24.8774 15.8984 24.9634 16.2383 24.8501L19.707 23.6938C20.0273 23.5845 20.3203 23.4048 20.5625 23.1665L27.0977 16.6274L23.2695 12.7993L16.7344 19.3384ZM13.75 12.397C11.6797 12.397 10 14.0767 10 16.147V26.147C10 28.2173 11.6797 29.897 13.75 29.897H23.75C25.8203 29.897 27.5 28.2173 27.5 26.147V22.397C27.5 21.7056 26.9414 21.147 26.25 21.147C25.5586 21.147 25 21.7056 25 22.397V26.147C25 26.8384 24.4414 27.397 23.75 27.397H13.75C13.0586 27.397 12.5 26.8384 12.5 26.147V16.147C12.5 15.4556 13.0586 14.897 13.75 14.897H17.5C18.1914 14.897 18.75 14.3384 18.75 13.647C18.75 12.9556 18.1914 12.397 17.5 12.397H13.75Z" fill="#DE002C"/>
<rect x="0.5" y="0.603027" width="38.7939" height="38.7939" rx="19.397" stroke="#DE002C"/>
</svg>
